<mxfile host="app.diagrams.net" modified="2023-03-23T14:57:00.676Z" agent="5.0 (Windows NT 10.0; Win64; x64) AppleWebKit/537.36 (KHTML, like Gecko) Chrome/111.0.0.0 Safari/537.36" etag="mlpjrFbxB-2cCOJ25vLU" version="21.0.10" type="github">
  <diagram name="Strona-1" id="lnbFas6rgQXbG-ftbxrE">
    <mxGraphModel dx="1434" dy="796" grid="1" gridSize="10" guides="1" tooltips="1" connect="1" arrows="1" fold="1" page="1" pageScale="1" pageWidth="850" pageHeight="1100" math="0" shadow="0">
      <root>
        <mxCell id="0" />
        <mxCell id="1" parent="0" />
        <mxCell id="M1l-mXzQJ1nPedMWtHA8-51" style="edgeStyle=orthogonalEdgeStyle;rounded=0;orthogonalLoop=1;jettySize=auto;html=1;entryX=0.5;entryY=0;entryDx=0;entryDy=0;" edge="1" parent="1" source="M1l-mXzQJ1nPedMWtHA8-52" target="M1l-mXzQJ1nPedMWtHA8-54">
          <mxGeometry relative="1" as="geometry" />
        </mxCell>
        <mxCell id="M1l-mXzQJ1nPedMWtHA8-52" value="&lt;font style=&quot;font-size: 24px;&quot;&gt;Start&lt;/font&gt;" style="ellipse;whiteSpace=wrap;html=1;" vertex="1" parent="1">
          <mxGeometry x="345" y="120" width="120" height="80" as="geometry" />
        </mxCell>
        <mxCell id="M1l-mXzQJ1nPedMWtHA8-53" style="edgeStyle=orthogonalEdgeStyle;rounded=0;orthogonalLoop=1;jettySize=auto;html=1;entryX=0.5;entryY=0;entryDx=0;entryDy=0;" edge="1" parent="1" source="M1l-mXzQJ1nPedMWtHA8-54" target="M1l-mXzQJ1nPedMWtHA8-57">
          <mxGeometry relative="1" as="geometry" />
        </mxCell>
        <mxCell id="M1l-mXzQJ1nPedMWtHA8-54" value="Podaj a&lt;br&gt;Podaj b" style="rounded=0;whiteSpace=wrap;html=1;" vertex="1" parent="1">
          <mxGeometry x="345" y="260" width="120" height="60" as="geometry" />
        </mxCell>
        <mxCell id="M1l-mXzQJ1nPedMWtHA8-55" style="edgeStyle=orthogonalEdgeStyle;rounded=0;orthogonalLoop=1;jettySize=auto;html=1;entryX=0;entryY=0.5;entryDx=0;entryDy=0;" edge="1" parent="1" source="M1l-mXzQJ1nPedMWtHA8-57" target="M1l-mXzQJ1nPedMWtHA8-59">
          <mxGeometry relative="1" as="geometry" />
        </mxCell>
        <mxCell id="M1l-mXzQJ1nPedMWtHA8-56" style="edgeStyle=orthogonalEdgeStyle;rounded=0;orthogonalLoop=1;jettySize=auto;html=1;entryX=0.5;entryY=0;entryDx=0;entryDy=0;" edge="1" parent="1" source="M1l-mXzQJ1nPedMWtHA8-57" target="M1l-mXzQJ1nPedMWtHA8-63">
          <mxGeometry relative="1" as="geometry">
            <mxPoint x="405" y="590" as="targetPoint" />
          </mxGeometry>
        </mxCell>
        <mxCell id="M1l-mXzQJ1nPedMWtHA8-57" value="a&amp;gt;b" style="rhombus;whiteSpace=wrap;html=1;" vertex="1" parent="1">
          <mxGeometry x="325" y="380" width="160" height="160" as="geometry" />
        </mxCell>
        <mxCell id="M1l-mXzQJ1nPedMWtHA8-58" style="edgeStyle=orthogonalEdgeStyle;rounded=0;orthogonalLoop=1;jettySize=auto;html=1;entryX=0.5;entryY=0;entryDx=0;entryDy=0;" edge="1" parent="1" source="M1l-mXzQJ1nPedMWtHA8-59" target="M1l-mXzQJ1nPedMWtHA8-63">
          <mxGeometry relative="1" as="geometry">
            <mxPoint x="405" y="590" as="targetPoint" />
            <Array as="points">
              <mxPoint x="625" y="570" />
              <mxPoint x="405" y="570" />
            </Array>
          </mxGeometry>
        </mxCell>
        <mxCell id="M1l-mXzQJ1nPedMWtHA8-59" value="c=a&lt;br&gt;a=b&lt;br&gt;b=c" style="rounded=0;whiteSpace=wrap;html=1;" vertex="1" parent="1">
          <mxGeometry x="565" y="430" width="120" height="60" as="geometry" />
        </mxCell>
        <mxCell id="M1l-mXzQJ1nPedMWtHA8-60" value="Nie" style="text;html=1;strokeColor=none;fillColor=none;align=center;verticalAlign=middle;whiteSpace=wrap;rounded=0;" vertex="1" parent="1">
          <mxGeometry x="485" y="420" width="60" height="30" as="geometry" />
        </mxCell>
        <mxCell id="M1l-mXzQJ1nPedMWtHA8-61" value="Tak" style="text;html=1;strokeColor=none;fillColor=none;align=center;verticalAlign=middle;whiteSpace=wrap;rounded=0;" vertex="1" parent="1">
          <mxGeometry x="345" y="540" width="60" height="30" as="geometry" />
        </mxCell>
        <mxCell id="M1l-mXzQJ1nPedMWtHA8-62" style="edgeStyle=orthogonalEdgeStyle;rounded=0;orthogonalLoop=1;jettySize=auto;html=1;entryX=0.5;entryY=0;entryDx=0;entryDy=0;" edge="1" parent="1" source="M1l-mXzQJ1nPedMWtHA8-63" target="M1l-mXzQJ1nPedMWtHA8-66">
          <mxGeometry relative="1" as="geometry" />
        </mxCell>
        <mxCell id="M1l-mXzQJ1nPedMWtHA8-63" value="a = a mod b" style="rounded=0;whiteSpace=wrap;html=1;" vertex="1" parent="1">
          <mxGeometry x="345" y="620" width="120" height="60" as="geometry" />
        </mxCell>
        <mxCell id="M1l-mXzQJ1nPedMWtHA8-64" style="edgeStyle=orthogonalEdgeStyle;rounded=0;orthogonalLoop=1;jettySize=auto;html=1;exitX=0;exitY=0.5;exitDx=0;exitDy=0;entryX=1;entryY=0.5;entryDx=0;entryDy=0;" edge="1" parent="1" source="M1l-mXzQJ1nPedMWtHA8-66" target="M1l-mXzQJ1nPedMWtHA8-70">
          <mxGeometry relative="1" as="geometry" />
        </mxCell>
        <mxCell id="M1l-mXzQJ1nPedMWtHA8-65" style="edgeStyle=orthogonalEdgeStyle;rounded=0;orthogonalLoop=1;jettySize=auto;html=1;entryX=0;entryY=0.5;entryDx=0;entryDy=0;" edge="1" parent="1" source="M1l-mXzQJ1nPedMWtHA8-66" target="M1l-mXzQJ1nPedMWtHA8-72">
          <mxGeometry relative="1" as="geometry" />
        </mxCell>
        <mxCell id="M1l-mXzQJ1nPedMWtHA8-66" value="z&amp;gt;0" style="rhombus;whiteSpace=wrap;html=1;" vertex="1" parent="1">
          <mxGeometry x="365" y="720" width="80" height="80" as="geometry" />
        </mxCell>
        <mxCell id="M1l-mXzQJ1nPedMWtHA8-67" value="Tak" style="text;html=1;strokeColor=none;fillColor=none;align=center;verticalAlign=middle;whiteSpace=wrap;rounded=0;" vertex="1" parent="1">
          <mxGeometry x="445" y="710" width="60" height="30" as="geometry" />
        </mxCell>
        <mxCell id="M1l-mXzQJ1nPedMWtHA8-68" value="Nie" style="text;html=1;strokeColor=none;fillColor=none;align=center;verticalAlign=middle;whiteSpace=wrap;rounded=0;" vertex="1" parent="1">
          <mxGeometry x="305" y="710" width="60" height="30" as="geometry" />
        </mxCell>
        <mxCell id="M1l-mXzQJ1nPedMWtHA8-69" style="edgeStyle=orthogonalEdgeStyle;rounded=0;orthogonalLoop=1;jettySize=auto;html=1;entryX=0.5;entryY=0;entryDx=0;entryDy=0;" edge="1" parent="1" source="M1l-mXzQJ1nPedMWtHA8-70" target="M1l-mXzQJ1nPedMWtHA8-63">
          <mxGeometry relative="1" as="geometry">
            <Array as="points">
              <mxPoint x="215" y="600" />
              <mxPoint x="405" y="600" />
            </Array>
          </mxGeometry>
        </mxCell>
        <mxCell id="M1l-mXzQJ1nPedMWtHA8-70" value="x=y&lt;br&gt;y=z" style="rounded=0;whiteSpace=wrap;html=1;" vertex="1" parent="1">
          <mxGeometry x="165" y="730" width="120" height="60" as="geometry" />
        </mxCell>
        <mxCell id="M1l-mXzQJ1nPedMWtHA8-71" style="edgeStyle=orthogonalEdgeStyle;rounded=0;orthogonalLoop=1;jettySize=auto;html=1;entryX=0.5;entryY=0;entryDx=0;entryDy=0;" edge="1" parent="1" source="M1l-mXzQJ1nPedMWtHA8-72" target="M1l-mXzQJ1nPedMWtHA8-73">
          <mxGeometry relative="1" as="geometry" />
        </mxCell>
        <mxCell id="M1l-mXzQJ1nPedMWtHA8-72" value="Wyswietl x" style="rounded=0;whiteSpace=wrap;html=1;" vertex="1" parent="1">
          <mxGeometry x="515" y="730" width="120" height="60" as="geometry" />
        </mxCell>
        <mxCell id="M1l-mXzQJ1nPedMWtHA8-73" value="Stop" style="ellipse;whiteSpace=wrap;html=1;" vertex="1" parent="1">
          <mxGeometry x="517.5" y="850" width="115" height="80" as="geometry" />
        </mxCell>
      </root>
    </mxGraphModel>
  </diagram>
</mxfile>
